<svg version="1.0" xmlns="http://www.w3.org/2000/svg"
 width="104.806561pt" height="157.035453pt" viewBox="0 0 104.806561 157.035453"
 preserveAspectRatio="xMidYMid meet">
<g transform="translate(-21.193439,166.035453) scale(0.100000,-0.100000)"
fill="#000000" stroke="none">
<path d="M502 1637 c-12 -13 -22 -34 -22 -46 0 -13 -20 -45 -45 -74 -57 -65
-111 -172 -128 -257 -8 -36 -26 -83 -40 -104 -96 -139 -64 -364 73 -519 l42
-48 -21 -49 c-12 -27 -21 -60 -21 -74 0 -14 -7 -44 -16 -66 -32 -80 8 -143 75
-118 13 4 25 7 27 6 5 -6 -27 -142 -37 -154 -15 -18 27 -44 73 -44 52 0 88 16
88 39 0 35 27 51 88 51 59 0 102 -19 102 -44 0 -21 52 -37 111 -34 l54 3 3 37
c2 26 -2 40 -16 50 -29 20 -35 64 -16 114 15 38 16 57 7 127 -6 45 -14 89 -17
98 -5 12 8 24 53 48 76 40 123 95 158 185 16 40 40 81 55 94 37 31 39 97 5
139 -13 15 -36 67 -51 116 -16 48 -38 99 -49 114 l-21 26 23 42 c12 23 41 63
64 88 40 45 44 47 78 38 21 -5 41 -6 46 -2 14 9 33 47 33 65 0 24 -37 56 -63
56 -29 0 -62 -34 -54 -55 4 -9 -2 -21 -17 -30 -24 -16 -82 -96 -110 -152 l-16
-32 -57 35 c-73 44 -150 72 -216 80 -102 12 -265 -44 -355 -122 -24 -20 -44
-35 -46 -33 -7 8 72 191 96 225 38 53 85 84 118 78 21 -5 32 0 53 26 31 37 33
47 11 78 -21 30 -73 30 -102 -1z m80 -24 c8 -31 -3 -43 -37 -43 -38 0 -49 11
-40 40 8 27 70 29 77 3z m636 -112 c21 -13 10 -46 -16 -49 -27 -4 -40 22 -22
43 14 17 20 18 38 6z m-390 -178 c100 -47 165 -123 208 -245 13 -36 12 -38
-14 -50 -32 -16 -72 -73 -72 -104 0 -27 43 -80 71 -89 65 -21 -96 -55 -256
-55 -66 0 -178 7 -250 15 -72 8 -151 15 -177 15 l-47 0 -17 56 c-35 121 -2
226 101 329 136 135 325 189 453 128z m281 -347 c15 -18 3 -46 -20 -46 -22 0
-34 22 -25 45 7 19 30 19 45 1z m-575 -216 c156 -14 360 -12 430 5 l58 14 -23
-27 c-33 -37 -57 -54 -100 -74 -33 -14 -39 -15 -50 -2 -16 19 -26 18 -61 -7
-16 -12 -30 -20 -32 -18 -1 2 -10 16 -19 32 -10 15 -21 27 -25 27 -5 0 -27
-16 -49 -35 l-40 -34 -28 29 c-35 37 -48 38 -63 5 -6 -14 -17 -25 -24 -25 -15
0 -98 55 -148 99 l-35 30 50 -5 c28 -2 99 -9 159 -14z m-65 -129 l44 -23 23
29 22 28 29 -27 c36 -35 43 -35 78 2 16 17 32 30 36 30 4 0 17 -16 28 -36 l21
-36 31 26 c33 28 44 31 54 15 4 -6 20 -8 38 -4 30 6 31 5 13 -9 -27 -22 -118
-47 -195 -53 -123 -10 -239 26 -303 96 l-33 35 35 -26 c19 -14 55 -35 79 -47z
m31 -103 c47 -17 71 -20 160 -15 58 3 117 10 132 16 25 9 27 8 36 -22 15 -48
23 -145 13 -151 -10 -6 -16 14 -26 87 -8 53 -28 59 -33 10 -5 -51 47 -266 69
-285 38 -32 23 -44 -39 -32 -26 5 -31 12 -34 38 l-3 31 -112 3 c-102 2 -114 1
-133 -18 -11 -11 -20 -29 -20 -40 0 -16 -7 -20 -35 -20 -19 0 -35 3 -35 8 0 4
9 41 21 82 23 86 33 234 18 261 -8 15 -14 17 -29 9 -11 -6 -19 -14 -18 -18 1
-4 -2 -33 -6 -65 -9 -67 -28 -92 -57 -77 -24 13 -23 24 1 75 11 22 19 49 20
60 0 11 5 37 11 58 8 30 14 37 27 32 9 -4 42 -16 72 -27z"/>
<path d="M368 1044 c-51 -37 -66 -75 -47 -127 18 -54 67 -87 125 -87 58 0 90
16 109 55 19 41 19 66 1 109 -32 77 -118 100 -188 50z m120 -46 c30 -30 0 -75
-43 -64 -41 11 -29 76 15 76 9 0 21 -5 28 -12z"/>
<path d="M943 752 c-15 -2 -23 -10 -23 -22 0 -30 13 -30 43 0 28 26 25 29 -20
22z"/>
</g>
</svg>
